<svg width="24" height="22" viewBox="0 0 24 22" fill="none" xmlns="http://www.w3.org/2000/svg">
<path d="M20.8401 3.61C20.3294 3.099 19.7229 2.69365 19.0555 2.41708C18.388 2.14052 17.6726 1.99817 16.9501 1.99817C16.2276 1.99817 15.5122 2.14052 14.8448 2.41708C14.1773 2.69365 13.5709 3.099 13.0601 3.61L12.0001 4.67L10.9401 3.61C9.90843 2.57831 8.50915 1.99871 7.05012 1.99871C5.59109 1.99871 4.19181 2.57831 3.16012 3.61C2.12843 4.64169 1.54883 6.04097 1.54883 7.5C1.54883 8.95903 2.12843 10.3583 3.16012 11.39L4.22012 12.45L12.0001 20.23L19.7801 12.45L20.8401 11.39C21.3511 10.8792 21.7565 10.2728 22.033 9.60536C22.3096 8.9379 22.4519 8.22249 22.4519 7.5C22.4519 6.77751 22.3096 6.0621 22.033 5.39464C21.7565 4.72719 21.3511 4.12076 20.8401 3.61V3.61Z" stroke="#707070" stroke-width="2" stroke-linecap="round" stroke-linejoin="round"/>
</svg>
