<svg width="22" height="20" viewBox="0 0 22 20" fill="none" xmlns="http://www.w3.org/2000/svg">
<path d="M19.8401 2.61C19.3294 2.099 18.7229 1.69365 18.0555 1.41708C17.388 1.14052 16.6726 0.998175 15.9501 0.998175C15.2276 0.998175 14.5122 1.14052 13.8448 1.41708C13.1773 1.69365 12.5709 2.099 12.0601 2.61L11.0001 3.67L9.94012 2.61C8.90843 1.57831 7.50915 0.998709 6.05012 0.998709C4.59109 0.998709 3.19181 1.57831 2.16012 2.61C1.12843 3.64169 0.548828 5.04097 0.548828 6.5C0.548828 7.95903 1.12843 9.35831 2.16012 10.39L3.22012 11.45L11.0001 19.23L18.7801 11.45L19.8401 10.39C20.3511 9.87924 20.7565 9.27281 21.033 8.60536C21.3096 7.9379 21.4519 7.22249 21.4519 6.5C21.4519 5.77751 21.3096 5.0621 21.033 4.39464C20.7565 3.72719 20.3511 3.12076 19.8401 2.61V2.61Z" fill="#F76767"/>
</svg>
